# xmcd
#
# Track frame offsets:
# 150
# 16219
# 33753
# 46370
# 63021
# 77237
# 93053
# 109177
# 125526
# 141434
# 154682
# 167757
#
# Disc length: 2431 seconds
#
#
# Revision: 0
# Processed by: cddbd v1.5.2PL0 Copyright (c) Steve Scherf et al.
# Submitted via: FreeRIP 2.91 
#
DISCID=8f097d0c
DTITLE=Wenche - Here I am
DYEAR=2006
DGENRE=Country
TTITLE0=If I said you had a beautiful body
TTITLE1=It never rains in southern California
TTITLE2=Holdin' out for a hero
TTITLE3=If you think you know how to love me
TTITLE4=God bless the American housewifes
TTITLE5=I can help
TTITLE6=Angel
TTITLE7=You're the World
TTITLE8=My fathers daughter
TTITLE9=Lover please
TTITLE10=Honey do
TTITLE11=I'll be here for you
EXTD=
EXTT0=
EXTT1=
EXTT2=
EXTT3=
EXTT4=
EXTT5=
EXTT6=
EXTT7=
EXTT8=
EXTT9=
EXTT10=
EXTT11=
PLAYORDER=
